<svg width="8" height="45" viewBox="0 0 8 45" fill="none" xmlns="http://www.w3.org/2000/svg">
<path opacity="0.8" d="M4.5 1L4.5 0.5L3.5 0.5L3.5 1L4.5 1ZM3.64645 44.3536C3.84171 44.5488 4.15829 44.5488 4.35356 44.3536L7.53554 41.1716C7.7308 40.9763 7.7308 40.6597 7.53554 40.4645C7.34027 40.2692 7.02369 40.2692 6.82843 40.4645L4 43.2929L1.17157 40.4645C0.976312 40.2692 0.65973 40.2692 0.464468 40.4645C0.269206 40.6597 0.269206 40.9763 0.464468 41.1716L3.64645 44.3536ZM3.5 1L3.5 44L4.5 44L4.5 1L3.5 1Z" fill="white"/>
</svg>
