<svg width="176" height="49" viewBox="0 0 176 49" fill="none" xmlns="http://www.w3.org/2000/svg">
<path d="M66.0417 9.9188C69.9495 9.9188 73.1361 10.9915 75.6017 13.137C78.1138 15.2824 79.3699 18.0357 79.3699 21.3969V39.5795H69.1819V22.6841C69.1819 18.7508 67.2745 16.7842 63.4598 16.7842C61.9712 16.7842 60.6686 17.0703 59.5521 17.6424C58.4821 18.1787 57.668 18.9833 57.1098 20.056C56.5515 21.1287 56.2724 22.416 56.2724 23.9178V39.5795H46.2938V22.6841C46.2938 18.7508 44.4562 16.7842 40.7811 16.7842C38.455 16.7842 36.6407 17.4099 35.3382 18.6615C34.0356 19.913 33.3843 21.6651 33.3843 23.9178V39.5795H23.1963V10.6161H30.3139L32.198 14.2097C33.5936 12.8867 35.2684 11.8497 37.2222 11.0988C39.2226 10.3121 41.3161 9.9188 43.5025 9.9188C45.8751 9.9188 48.015 10.33 49.9224 11.1524C51.8297 11.9748 53.3184 13.1191 54.3883 14.5851C54.8535 14.0845 55.342 13.6376 55.8537 13.2442C56.3655 12.8151 56.9237 12.4397 57.5285 12.1179C58.1332 11.7603 58.7613 11.4564 59.4126 11.2061C60.0638 10.92 60.7384 10.6876 61.4362 10.5088C62.1805 10.33 62.9249 10.187 63.6692 10.0797C64.46 9.97243 65.2509 9.9188 66.0417 9.9188Z" fill="#153E64"/>
<path d="M93.3593 40.384C89.4981 40.384 86.0091 39.7225 82.8922 38.3995C79.7753 37.0765 77.333 35.2528 75.5652 32.9286C73.8439 30.5686 72.9833 27.9583 72.9833 25.0978C72.9833 20.6996 74.9139 17.0524 78.7751 14.156C82.6363 11.2597 87.4977 9.81152 93.3593 9.81152C99.1744 9.81152 104.013 11.2597 107.874 14.156C111.735 17.0524 113.666 20.6996 113.666 25.0978C113.666 29.4602 111.712 33.1074 107.804 36.0395C103.943 38.9358 99.1279 40.384 93.3593 40.384ZM93.3593 33.0359C96.2901 33.0359 98.6859 32.3029 100.547 30.8368C102.408 29.335 103.338 27.422 103.338 25.0978C103.338 22.7735 102.408 20.8784 100.547 19.4124C98.6859 17.9106 96.2668 17.1596 93.2895 17.1596C90.3587 17.1596 87.9629 17.9106 86.1021 19.4124C84.2413 20.8784 83.3109 22.7735 83.3109 25.0978C83.3109 26.242 83.5435 27.3147 84.0087 28.3159C84.5204 29.3171 85.2182 30.1574 86.1021 30.8368C86.986 31.5162 88.0327 32.0526 89.2422 32.4459C90.4983 32.8392 91.8706 33.0359 93.3593 33.0359Z" fill="#153E64"/>
<path d="M125.69 40.384C121.829 40.384 118.34 39.7225 115.223 38.3995C112.106 37.0765 109.664 35.2528 107.896 32.9286C106.175 30.5686 105.314 27.9583 105.314 25.0978C105.314 20.6996 107.245 17.0524 111.106 14.156C114.967 11.2597 119.829 9.81152 125.69 9.81152C131.505 9.81152 136.343 11.2597 140.205 14.156C144.066 17.0524 145.996 20.6996 145.996 25.0978C145.996 29.4602 144.043 33.1074 140.135 36.0395C136.274 38.9358 131.459 40.384 125.69 40.384ZM125.69 33.0359C128.621 33.0359 131.017 32.3029 132.878 30.8368C134.738 29.335 135.669 27.422 135.669 25.0978C135.669 22.7735 134.738 20.8784 132.878 19.4124C131.017 17.9106 128.598 17.1596 125.62 17.1596C122.69 17.1596 120.294 17.9106 118.433 19.4124C116.572 20.8784 115.642 22.7735 115.642 25.0978C115.642 26.242 115.874 27.3147 116.34 28.3159C116.851 29.3171 117.549 30.1574 118.433 30.8368C119.317 31.5162 120.364 32.0526 121.573 32.4459C122.829 32.8392 124.202 33.0359 125.69 33.0359Z" fill="#153E64"/>
<path d="M161.58 9.9188C165.86 9.9188 169.233 11.0273 171.698 13.2442C174.21 15.4254 175.466 18.3575 175.466 22.0405V39.5795H165.278V23.2741C165.278 18.9475 163.092 16.7842 158.719 16.7842C156.998 16.7842 155.486 17.0881 154.183 17.696C152.927 18.3039 151.95 19.1799 151.252 20.3242C150.601 21.4684 150.275 22.8093 150.275 24.3469V39.5795H140.087V10.6161H147.065L149.089 14.2097C149.787 13.5303 150.578 12.9403 151.462 12.4397C152.392 11.9033 153.392 11.4564 154.462 11.0988C155.532 10.7055 156.649 10.4194 157.812 10.2406C159.021 10.0261 160.277 9.9188 161.58 9.9188Z" fill="#153E64"/>
<path fill-rule="evenodd" clip-rule="evenodd" d="M24.0063 48.8291C18.7044 48.8291 14.4063 38.0839 14.4063 24.8291C14.4063 11.5743 18.7044 0.829102 24.0063 0.829102C10.7515 0.829102 0.00634766 11.5743 0.00634766 24.8291C0.00634766 38.0839 10.7515 48.8291 24.0063 48.8291Z" fill="#95B9B9"/>
</svg>
