<svg width="125" height="34" viewBox="0 0 125 34" fill="none" xmlns="http://www.w3.org/2000/svg">
<path d="M46.7824 6.43853C49.5504 6.43853 51.8076 7.19838 53.5541 8.71806C55.3335 10.2377 56.2232 12.188 56.2232 14.5688V27.4482H49.0067V15.4807C49.0067 12.6946 47.6557 11.3015 44.9536 11.3015C43.8991 11.3015 42.9765 11.5041 42.1856 11.9094C41.4277 12.2893 40.8511 12.8592 40.4557 13.619C40.0602 14.3789 39.8625 15.2907 39.8625 16.3545V27.4482H32.7943V15.4807C32.7943 12.6946 31.4927 11.3015 28.8895 11.3015C27.2419 11.3015 25.9567 11.7448 25.0341 12.6312C24.1114 13.5177 23.6501 14.7588 23.6501 16.3545V27.4482H16.4336V6.93243H21.4753L22.8098 9.4779C23.7984 8.54076 24.9847 7.80625 26.3686 7.27436C27.7856 6.71714 29.2684 6.43853 30.8172 6.43853C32.4977 6.43853 34.0135 6.72981 35.3646 7.31235C36.7156 7.8949 37.7701 8.7054 38.528 9.74385C38.8575 9.38925 39.2035 9.07265 39.5659 8.79404C39.9284 8.49011 40.3238 8.22416 40.7522 7.99621C41.1806 7.74293 41.6255 7.52764 42.0868 7.35034C42.5481 7.14772 43.0259 6.98309 43.5202 6.85645C44.0474 6.7298 44.5747 6.62849 45.1019 6.55251C45.6621 6.47653 46.2223 6.43853 46.7824 6.43853Z" fill="#153E64"/>
<path d="M66.1324 28.0181C63.3974 28.0181 60.926 27.5495 58.7182 26.6124C56.5104 25.6752 54.7804 24.3835 53.5282 22.7372C52.309 21.0655 51.6994 19.2166 51.6994 17.1903C51.6994 14.075 53.0669 11.4915 55.8019 9.43991C58.5369 7.38834 61.9804 6.36255 66.1324 6.36255C70.2514 6.36255 73.6784 7.38834 76.4134 9.43991C79.1485 11.4915 80.516 14.075 80.516 17.1903C80.516 20.2803 79.132 22.8638 76.364 24.9407C73.629 26.9923 70.2184 28.0181 66.1324 28.0181ZM66.1324 22.8131C68.2084 22.8131 69.9054 22.2939 71.2235 21.2555C72.5416 20.1917 73.2006 18.8366 73.2006 17.1903C73.2006 15.544 72.5416 14.2016 71.2235 13.1631C69.9054 12.0994 68.1919 11.5675 66.083 11.5675C64.007 11.5675 62.3099 12.0994 60.9919 13.1631C59.6738 14.2016 59.0147 15.544 59.0147 17.1903C59.0147 18.0008 59.1795 18.7606 59.509 19.4698C59.8715 20.179 60.3658 20.7742 60.9919 21.2555C61.618 21.7367 62.3594 22.1166 63.2161 22.3952C64.1058 22.6738 65.0779 22.8131 66.1324 22.8131Z" fill="#153E64"/>
<path d="M89.0334 28.0181C86.2984 28.0181 83.827 27.5495 81.6192 26.6124C79.4114 25.6752 77.6814 24.3835 76.4293 22.7372C75.21 21.0655 74.6004 19.2166 74.6004 17.1903C74.6004 14.075 75.9679 11.4915 78.703 9.43991C81.438 7.38834 84.8815 6.36255 89.0334 6.36255C93.1524 6.36255 96.5794 7.38834 99.3145 9.43991C102.049 11.4915 103.417 14.075 103.417 17.1903C103.417 20.2803 102.033 22.8638 99.265 24.9407C96.53 26.9923 93.1195 28.0181 89.0334 28.0181ZM89.0334 22.8131C91.1094 22.8131 92.8064 22.2939 94.1245 21.2555C95.4426 20.1917 96.1016 18.8366 96.1016 17.1903C96.1016 15.544 95.4426 14.2016 94.1245 13.1631C92.8064 12.0994 91.0929 11.5675 88.984 11.5675C86.908 11.5675 85.211 12.0994 83.8929 13.1631C82.5748 14.2016 81.9158 15.544 81.9158 17.1903C81.9158 18.0008 82.0805 18.7606 82.4101 19.4698C82.7725 20.179 83.2668 20.7742 83.8929 21.2555C84.519 21.7367 85.2604 22.1166 86.1172 22.3952C87.0069 22.6738 87.979 22.8131 89.0334 22.8131Z" fill="#153E64"/>
<path d="M114.455 6.43853C117.487 6.43853 119.876 7.2237 121.622 8.79404C123.402 10.3391 124.291 12.416 124.291 15.0248V27.4482H117.075V15.8986C117.075 12.8339 115.526 11.3015 112.429 11.3015C111.21 11.3015 110.139 11.5168 109.216 11.9474C108.326 12.378 107.634 12.9985 107.14 13.809C106.679 14.6195 106.448 15.5693 106.448 16.6584V27.4482H99.2314V6.93243H104.174L105.608 9.4779C106.102 8.99667 106.662 8.57876 107.288 8.22416C107.947 7.84424 108.656 7.52764 109.414 7.27436C110.172 6.99575 110.962 6.79313 111.786 6.66649C112.643 6.51452 113.533 6.43853 114.455 6.43853Z" fill="#153E64"/>
<path fill-rule="evenodd" clip-rule="evenodd" d="M17.0063 34C13.2508 34 10.2063 26.3888 10.2063 17C10.2063 7.61116 13.2508 0 17.0063 0C7.61751 0 0.00634766 7.61116 0.00634766 17C0.00634766 26.3888 7.61751 34 17.0063 34Z" fill="#95B9B9"/>
</svg>
