<svg width="120" height="120" fill="none" xmlns="http://www.w3.org/2000/svg"><circle cx="60" cy="60" r="60" fill="#fff"/><circle cx="60.137" cy="59.657" r="54.557" stroke="#9BEBFC" stroke-width=".968"/><path d="M52.456 56.792a4.062 4.062 0 01-1.684.88c-.83.21-1.369-.164-2.145-.334.07-.15.104-.472.185-.647a4.075 4.075 0 01-2.675-1.984c.121-.085.222-.305.33-.404a8.328 8.328 0 01-1.829-3.844c.896-.495 2.104-.317 2.995-.174-.053-.141-.005-.406-.071-.56.834-.282 2.12.398 2.853.75a1.426 1.426 0 01-.202-.642c1.782-.307 3.926 4.462 3.303 6.146l-1.06.813z" fill="#639B00"/><path d="M53.214 55.642c-.56.125-1.127.217-1.698.273-.571.174-1.16.28-1.756.32.457-.587 1.438-.432 1.844-.947-.734.014-1.469-.018-2.2-.094-.528-.025-1.512.168-1.891-.214a16.756 16.756 0 012.085-.807c-.747-.448-1.645-.546-2.367-1.09a10.28 10.28 0 01-1.498-1.67c1.101.424 2.071 1.165 3.242 1.473a3.945 3.945 0 00-.927-1.923c1.293.293 1.722 2.557 2.698 3.28a11.815 11.815 0 00-.504-2.573c1.194 1.087 1.4 3.534 3.128 4.086l-.156-.114z" fill="#BDE885"/><path d="M55.045 57.855c.63.478 3.142.42 4.093.268 1.897-.291 2.858-1.46 4.428-2.433-.232-.241-.477-.852-.725-1.055a10.778 10.778 0 004.68-6.05c-.305-.056-.641-.4-.93-.494a17.712 17.712 0 001.876-8.88c-2.158-.177-4.692 1.152-6.52 2.188.039-.319-.165-.8-.142-1.133-1.95.156-4.36 2.552-5.761 3.844.15-.45.184-.93.097-1.395-4.004.916-6.121 11.844-3.774 14.576l2.678.564z" fill="#3D6E00"/><path d="M52.865 56.267c1.304-.158 2.537-.62 3.811-.902a19.504 19.504 0 003.949-.874c-1.294-.754-3.321.382-4.487-.288a50.077 50.077 0 004.674-2.03c1.141-.458 3.35-.958 3.96-2.016a38.277 38.277 0 00-4.924.211c1.365-1.486 3.206-2.412 4.508-4.082a24.416 24.416 0 002.325-4.48c-2.144 1.757-3.827 3.987-6.11 5.58-.286-1.418.404-3.208.948-4.48-2.59 1.633-2.341 6.312-4.03 8.554a21.909 21.909 0 01-.319-5.402c-1.975 3.088-1.108 7.957-4.526 10.465l.221-.256z" fill="#63A200"/><path d="M27.514 60.437c.052.15.078.258.078.326 0 .082-.022.142-.067.18a.735.735 0 00-.123.202.397.397 0 01-.146.18c-.053.03-.11.06-.169.09-.052.029-.105.063-.157.1a.3.3 0 00-.124.157.552.552 0 01-.236.281.609.609 0 01-.325.09c-.12 0-.24-.03-.36-.09a7.788 7.788 0 01-.382-.247 8.53 8.53 0 00-.471-.314 2.993 2.993 0 00-.64-.326 4.866 4.866 0 00-.899-.236 6.386 6.386 0 00-1.213-.101c-.673 0-1.28.097-1.819.292-.531.187-1.022.52-1.471 1-.3.321-.52.655-.663.999a2.505 2.505 0 00-.213.977c0 .285.063.54.19.764.136.224.315.43.54.617.224.18.486.349.786.506.307.15.633.3.977.449.352.142.715.285 1.09.427.381.142.76.295 1.134.46.554.247 1.052.52 1.493.82.442.292.816.618 1.123.977.307.36.543.749.708 1.168.165.42.247.872.247 1.359 0 .621-.109 1.21-.326 1.763a3.87 3.87 0 01-1 1.438c-.448.411-1.014.737-1.695.977-.674.247-1.471.37-2.392.37-.644 0-1.21-.078-1.696-.236a5.272 5.272 0 01-1.235-.561 3.767 3.767 0 01-.786-.64c-.188-.21-.307-.375-.36-.494a1.54 1.54 0 01-.078-.203 1.225 1.225 0 01-.012-.145c0-.083.015-.143.045-.18a1.78 1.78 0 00.18-.247.256.256 0 01.123-.113c.053-.03.105-.056.158-.078.06-.03.116-.064.168-.101a.448.448 0 00.135-.169c.12-.247.296-.37.528-.37a.61.61 0 01.37.134c.128.083.266.188.416.315l.505.427c.195.15.423.288.685.415.262.127.562.236.899.326.344.082.745.123 1.201.123.57 0 1.049-.056 1.438-.168.39-.112.7-.266.932-.46.24-.203.412-.439.517-.708.105-.27.157-.562.157-.876 0-.39-.075-.726-.225-1.01a2.321 2.321 0 00-.606-.753 3.938 3.938 0 00-.921-.573c-.36-.172-.756-.34-1.19-.505a51.736 51.736 0 00-1.37-.506c-.48-.18-.97-.385-1.472-.617a7.882 7.882 0 01-1.09-.596 4.389 4.389 0 01-.853-.752 3.128 3.128 0 01-.539-.932 3.483 3.483 0 01-.19-1.19c0-.532.078-1.053.235-1.562.165-.516.393-1 .685-1.448.292-.457.64-.876 1.045-1.258a7.248 7.248 0 011.347-.988 6.375 6.375 0 011.561-.652 6.264 6.264 0 011.719-.236c.651 0 1.224.083 1.718.247.494.158.91.345 1.247.562.336.21.599.423.786.64.187.21.303.37.348.483zm7.884 10.209c-.24.666-.457 1.254-.652 1.763a9.01 9.01 0 01-.573 1.269c-.194.337-.408.591-.64.763-.224.173-.49.259-.797.259a1 1 0 01-.663-.225 1.685 1.685 0 01-.426-.584 3.197 3.197 0 01-.225-.786 5.262 5.262 0 01-.067-.82v-.561c0-.18.007-.349.022-.506a14.46 14.46 0 01-.505 1.674c-.165.449-.334.808-.506 1.078s-.355.464-.55.584a1.138 1.138 0 01-.595.168c-.157 0-.318-.041-.483-.123-.157-.075-.303-.225-.438-.45-.135-.224-.247-.539-.337-.943-.082-.412-.123-.95-.123-1.617 0-.165.003-.363.01-.595.008-.24.023-.487.046-.742.022-.262.048-.516.078-.763a6.557 6.557 0 01.225-1.011c.037-.127.075-.21.112-.247.082-.075.15-.142.202-.202.06-.06.109-.09.146-.09a.14.14 0 01.124.067c.037.038.075.056.112.056.023 0 .064-.018.124-.056.067-.037.138-.078.213-.123.075-.045.146-.086.213-.124a.437.437 0 01.158-.056c.09 0 .134.082.134.247 0 .045-.003.097-.01.157-.008.06-.02.131-.035.214-.067.479-.116.943-.145 1.392a28.135 28.135 0 00-.023 2.202c.008.232.023.434.045.606.03.165.075.296.135.393.06.09.142.135.247.135.15 0 .288-.098.415-.292a3.6 3.6 0 00.349-.775c.112-.314.217-.663.314-1.044l.28-1.112c.09-.367.18-.704.27-1.011.098-.307.195-.54.292-.696.098-.15.225-.274.382-.371a.915.915 0 01.46-.146c.165 0 .281.064.349.191.075.12.112.356.112.707 0 .255-.008.495-.023.72a152.333 152.333 0 00-.09 1.47c-.014.27-.022.573-.022.91 0 .307.011.558.034.753.03.187.067.333.112.438a.501.501 0 00.146.213.27.27 0 00.157.056.504.504 0 00.36-.168c.112-.113.224-.274.337-.483.12-.217.24-.48.36-.786.126-.307.265-.656.415-1.045a.529.529 0 01.134-.202.236.236 0 01.169-.079c.045 0 .082.02.112.056.038.03.056.075.056.135a.397.397 0 01-.033.157zm10.32-.349c.105 0 .158.06.158.18a.553.553 0 01-.034.168c-.172.502-.337.963-.494 1.382-.15.42-.3.793-.45 1.123-.09.202-.187.397-.291.584a2.792 2.792 0 01-.36.505 1.738 1.738 0 01-.46.348c-.172.09-.37.135-.596.135-.15 0-.295-.022-.438-.067a.966.966 0 01-.392-.214 1.377 1.377 0 01-.304-.438 2.21 2.21 0 01-.168-.673 12.927 12.927 0 01-.045-1.056c0-.404.011-.786.034-1.146.022-.366.033-.644.033-.83 0-.15-.026-.259-.078-.326-.045-.068-.098-.101-.158-.101a.216.216 0 00-.19.1c-.038.06-.072.132-.102.214a7.91 7.91 0 00-.168.472l-.258.74a60.277 60.277 0 01-.584 1.708c-.113.33-.221.595-.326.797a2.234 2.234 0 01-.292.46.717.717 0 01-.27.225.697.697 0 01-.27.057.72.72 0 01-.472-.191.937.937 0 01-.178-.27 1.43 1.43 0 01-.079-.438 5.75 5.75 0 01-.011-.36v-.381c0-.277.003-.554.011-.831l.022-.775c.015-.24.027-.457.034-.651.008-.195.011-.345.011-.45 0-.15-.026-.258-.078-.325-.045-.068-.098-.101-.157-.101a.234.234 0 00-.18.09.824.824 0 00-.112.213c-.038.09-.094.25-.169.483l-.258.775a60.7 60.7 0 01-.292.898c-.105.307-.202.588-.292.842-.12.337-.232.607-.337.809a2.16 2.16 0 01-.292.472.845.845 0 01-.28.213.617.617 0 01-.495.011.722.722 0 01-.236-.146 1.13 1.13 0 01-.18-.28 1.253 1.253 0 01-.067-.439c-.007-.224-.011-.43-.011-.617v-.562-.808c.007-.285.019-.618.034-1 .007-.337.03-.655.067-.954a10.08 10.08 0 01.292-1.36c.052-.149.093-.243.123-.28.053-.06.109-.12.169-.18.067-.067.13-.1.19-.1s.106.018.136.055a.14.14 0 00.1.045.368.368 0 00.17-.056c.066-.045.149-.097.246-.157l.157-.09a.285.285 0 01.169-.056c.082 0 .123.097.123.292 0 .06-.01.183-.033.37l-.045.54-.068.965a74.76 74.76 0 01-.067.876c-.015.27-.026.502-.034.697-.007.194-.01.33-.01.404 0 .12.007.18.022.18.007 0 .037-.072.09-.214.06-.15.13-.34.213-.573l.292-.786a29.688 29.688 0 01.707-1.684c.128-.262.251-.476.37-.64.15-.21.308-.367.473-.472a.858.858 0 01.483-.169c.314 0 .516.199.606.596.09.397.135.984.135 1.763 0 .337-.008.685-.023 1.044-.015.36-.022.715-.022 1.067 0 .045.007.068.022.068.008 0 .038-.072.09-.214l.202-.573c.09-.24.191-.505.303-.797.113-.292.229-.58.349-.865.127-.292.25-.565.37-.82a4.51 4.51 0 01.37-.628c.15-.203.308-.36.473-.472a.858.858 0 01.482-.169c.135 0 .251.045.348.135a.78.78 0 01.225.36c.06.15.101.33.124.539.03.202.045.427.045.674 0 .134-.008.299-.023.494-.007.194-.019.4-.034.617l-.022.674c-.008.225-.011.43-.011.618 0 .292.011.531.033.719.03.187.068.333.113.438a.454.454 0 00.157.213c.06.037.127.056.202.056.135 0 .255-.06.36-.18.112-.127.22-.299.325-.516.112-.217.225-.472.337-.764.112-.3.24-.625.382-.977.067-.187.172-.28.314-.28zm10.445 0c.105 0 .157.06.157.18a.556.556 0 01-.034.168 52.67 52.67 0 01-.494 1.382c-.15.42-.3.793-.45 1.123-.089.202-.186.397-.291.584a2.787 2.787 0 01-.36.505 1.736 1.736 0 01-.46.348c-.172.09-.37.135-.595.135-.15 0-.296-.022-.438-.067a.966.966 0 01-.393-.214 1.377 1.377 0 01-.303-.438 2.214 2.214 0 01-.169-.673 13.101 13.101 0 01-.045-1.056c0-.404.011-.786.034-1.146.022-.366.034-.644.034-.83 0-.15-.027-.259-.079-.326-.045-.068-.097-.101-.157-.101a.216.216 0 00-.191.1c-.038.06-.071.132-.101.214a7.89 7.89 0 00-.169.472c-.075.217-.16.464-.258.74a59.087 59.087 0 01-.584 1.708 5.93 5.93 0 01-.326.797 2.23 2.23 0 01-.292.46.716.716 0 01-.27.225.697.697 0 01-.269.057.722.722 0 01-.472-.191.937.937 0 01-.18-.27 1.433 1.433 0 01-.078-.438 5.75 5.75 0 01-.01-.36v-.381c0-.277.003-.554.01-.831l.023-.775c.015-.24.026-.457.033-.651.008-.195.012-.345.012-.45 0-.15-.026-.258-.079-.325-.045-.068-.097-.101-.157-.101a.234.234 0 00-.18.09.821.821 0 00-.112.213c-.038.09-.094.25-.169.483l-.258.775a60.7 60.7 0 01-.292.898c-.105.307-.202.588-.292.842-.12.337-.232.607-.337.809-.097.202-.194.36-.292.472a.843.843 0 01-.28.213.616.616 0 01-.495.011.72.72 0 01-.236-.146 1.13 1.13 0 01-.18-.28 1.25 1.25 0 01-.067-.439c-.007-.224-.01-.43-.01-.617v-.562-.808c.007-.285.018-.618.033-1 .007-.337.03-.655.067-.954a10.127 10.127 0 01.292-1.36c.053-.149.094-.243.124-.28.052-.06.108-.12.168-.18.068-.067.131-.1.191-.1s.105.018.135.055a.14.14 0 00.101.045.368.368 0 00.168-.056c.068-.045.15-.097.248-.157l.157-.09a.285.285 0 01.168-.056c.082 0 .124.097.124.292 0 .06-.011.183-.034.37l-.045.54-.067.965c-.023.315-.045.607-.068.876-.015.27-.026.502-.033.697-.008.194-.012.33-.012.404 0 .12.008.18.023.18.007 0 .037-.072.09-.214.06-.15.13-.34.213-.573l.292-.786a29.688 29.688 0 01.708-1.684c.127-.262.25-.476.37-.64.15-.21.307-.367.472-.472a.858.858 0 01.483-.169c.314 0 .516.199.606.596.09.397.135.984.135 1.763 0 .337-.008.685-.022 1.044-.015.36-.023.715-.023 1.067 0 .045.008.068.023.068.007 0 .037-.072.09-.214l.202-.573c.09-.24.19-.505.303-.797.112-.292.228-.58.348-.865.127-.292.25-.565.37-.82a4.51 4.51 0 01.371-.628c.15-.203.307-.36.472-.472a.858.858 0 01.483-.169c.135 0 .25.045.348.135a.78.78 0 01.224.36c.06.15.102.33.124.539.03.202.045.427.045.674 0 .134-.008.299-.023.494-.007.194-.018.4-.033.617l-.023.674c-.007.225-.01.43-.01.618 0 .292.01.531.033.719.03.187.067.333.112.438a.453.453 0 00.157.213c.06.037.128.056.203.056.134 0 .254-.06.359-.18.112-.127.22-.299.325-.516.113-.217.225-.472.337-.764.113-.3.24-.625.382-.977.068-.187.172-.28.315-.28zm5.29 0c.044 0 .082.015.112.045.037.03.056.075.056.135 0 .06-.012.116-.034.168-.112.315-.236.61-.37.888-.128.277-.248.524-.36.74-.135.248-.266.48-.393.697a5.988 5.988 0 01-.528.708 4.136 4.136 0 01-.617.584 2.987 2.987 0 01-.73.393c-.262.097-.54.146-.832.146-.217 0-.456-.038-.718-.112a1.857 1.857 0 01-.72-.416c-.216-.202-.396-.48-.538-.831-.15-.352-.225-.805-.225-1.359 0-.254.027-.513.079-.775.045-.262.112-.513.202-.752.082-.24.176-.465.28-.674.113-.21.225-.393.338-.55.194-.27.4-.52.617-.753.217-.24.435-.445.652-.618.224-.18.442-.318.651-.415.21-.097.404-.146.584-.146.285 0 .532.108.741.326.217.217.326.527.326.932 0 .352-.09.718-.27 1.1-.18.375-.404.742-.673 1.1a10.108 10.108 0 01-1.707 1.763c.134.338.307.585.516.742.21.157.423.236.64.236.337 0 .637-.108.899-.326.27-.217.509-.483.719-.797.217-.314.404-.644.561-.988.165-.345.31-.648.438-.91a.786.786 0 01.135-.202.213.213 0 01.168-.079zm-4.37.54c0 .441.034.83.102 1.167a6.116 6.116 0 00.864-1.1c.128-.202.229-.408.304-.618.082-.21.123-.412.123-.606 0-.3-.063-.532-.19-.697-.128-.164-.255-.247-.383-.247-.074 0-.16.049-.258.146-.09.09-.18.225-.27.405-.082.18-.153.4-.213.662a4.44 4.44 0 00-.078.887zm9.558-.192a27.513 27.513 0 01-.528 1.618c-.18.494-.37.92-.573 1.28-.202.36-.427.64-.674.842-.24.202-.513.303-.82.303-.374 0-.677-.187-.91-.561-.224-.382-.336-.883-.336-1.505 0-.27.011-.524.034-.764.03-.24.06-.471.09-.696.037-.225.067-.442.09-.651.03-.21.044-.416.044-.618 0-.217-.026-.36-.078-.427a.245.245 0 00-.202-.1.1.1 0 00-.045.01.685.685 0 00-.09.012c-.038 0-.098.007-.18.022a29.6 29.6 0 00-.314.034c-.083.18-.15.333-.203.46-.052.12-.097.225-.134.315l-.101.236a5.27 5.27 0 00-.068.19c-.06.143-.112.233-.157.27a.277.277 0 01-.157.045.139.139 0 01-.113-.056.213.213 0 01-.056-.157c0-.045.012-.098.034-.158l.079-.247a3.84 3.84 0 00.112-.393c.045-.157.09-.352.135-.584-.15-.067-.277-.224-.382-.471a2.181 2.181 0 01-.169-.888c0-.277.049-.557.146-.842.09-.284.203-.543.337-.775.142-.24.292-.434.45-.584.164-.15.31-.224.438-.224.164 0 .303.1.415.303.12.195.18.42.18.674 0 .134-.015.273-.045.415-.03.135-.064.262-.101.382-.03.112-.06.217-.09.314a.722.722 0 00-.045.214c0 .067.026.1.078.1a.691.691 0 00.203-.055l.55-.247c.202-.083.374-.124.517-.124.24 0 .396.075.471.225.083.15.124.37.124.662 0 .128-.015.352-.045.674l-.101 1.056-.09 1.145c-.023.382-.034.693-.034.932 0 .262.026.457.079.584.06.12.183.18.37.18.135 0 .266-.079.394-.236.134-.157.262-.355.381-.595.12-.24.233-.501.337-.786.113-.285.214-.558.303-.82.068-.187.165-.28.293-.28.12 0 .18.067.18.201a.212.212 0 01-.012.068.33.33 0 01-.011.079zm4.964-8.512a.967.967 0 01.314-.393.73.73 0 01.46-.157c.06 0 .139.018.236.056.098.037.146.097.146.18a.61.61 0 01-.022.168l-.034.19a38.765 38.765 0 00-.36 1.944 66.555 66.555 0 00-.448 3.784 95.404 95.404 0 00-.113 1.629l-.056 1.336c-.007.382-.011.689-.011.921 0 .374-.004.756-.011 1.145v1.101c0 .337-.004.636-.011.898v.686a.458.458 0 01-.023.146.307.307 0 01-.079.134c-.03.038-.075.056-.134.056a.644.644 0 01-.27-.056 1.48 1.48 0 01-.236-.134 3.309 3.309 0 00-.224-.124.412.412 0 00-.203-.056.274.274 0 00-.202.078.26.26 0 01-.19.08.317.317 0 01-.214-.068.373.373 0 01-.112-.169.986.986 0 01-.045-.213v-.202-.674c.007-.307.015-.651.022-1.033l.045-1.213.045-1.202c.023-.434.049-.898.079-1.392.037-.502.078-1 .123-1.494s.09-.973.135-1.438c.052-.471.097-.898.135-1.28l.112-.988.079-.562c.052-.329.105-.61.157-.842.06-.232.124-.39.19-.472a1.04 1.04 0 01.415-.303.669.669 0 01.305-.067zm1.55-1.786c-.555 0-1.12.06-1.696.18-.577.112-1.101.3-1.573.561a3.48 3.48 0 00-1.168 1.045c-.3.427-.449.958-.449 1.594 0 .33.041.644.124.944a5.516 5.516 0 00.629 1.46c.112.172.202.3.27.382a.805.805 0 01.1.157c.03.06.045.112.045.157 0 .06-.026.112-.078.157-.045.045-.131.068-.259.068-.18 0-.42-.06-.718-.18a3.266 3.266 0 01-.865-.573 3.41 3.41 0 01-.719-.977c-.202-.397-.303-.865-.303-1.404 0-.381.075-.778.224-1.19a5.04 5.04 0 01.652-1.213 6.623 6.623 0 011.067-1.145 7.32 7.32 0 011.448-.944 8.625 8.625 0 011.797-.64 8.781 8.781 0 012.134-.247c1.018 0 1.91.165 2.673.494.764.322 1.4.753 1.909 1.292.51.539.891 1.16 1.146 1.864.262.704.393 1.438.393 2.201 0 .936-.161 1.782-.483 2.538a5.231 5.231 0 01-1.37 1.932c-.6.531-1.33.943-2.19 1.235-.861.285-1.835.427-2.92.427-.083 0-.172.004-.27.011a1.44 1.44 0 01-.258-.022.644.644 0 01-.191-.09c-.045-.045-.067-.112-.067-.202 0-.083.022-.161.067-.236a.238.238 0 01.19-.124c.967-.075 1.78-.25 2.438-.527.659-.277 1.187-.63 1.583-1.056.405-.434.693-.932.865-1.494.18-.569.27-1.179.27-1.83 0-.824-.116-1.528-.349-2.112-.232-.584-.55-1.06-.954-1.426a3.603 3.603 0 00-1.415-.809 5.651 5.651 0 00-1.73-.258zm11.398 9.95c.045 0 .083.02.113.056.037.03.056.075.056.135a.396.396 0 01-.034.157c-.15.435-.296.835-.438 1.202-.135.36-.27.693-.404 1-.127.292-.251.543-.37.752-.113.21-.225.386-.338.528a1.838 1.838 0 01-.325.348 1.08 1.08 0 01-.326.18 1.245 1.245 0 01-.393.056c-.165 0-.344-.037-.54-.112a1.292 1.292 0 01-.55-.405c-.164-.202-.303-.483-.415-.842-.112-.367-.168-.842-.168-1.426 0-.157.007-.423.022-.798.023-.374.049-.823.079-1.347l.123-1.797.169-2.111c.037-.457.082-.955.134-1.494.06-.547.12-1.078.18-1.595.06-.516.12-.992.18-1.426.06-.434.112-.775.157-1.022.052-.262.153-.468.303-.618.15-.15.318-.31.506-.483l.213-.213a3.17 3.17 0 01.225-.225 1.89 1.89 0 01.213-.168.376.376 0 01.213-.079c.105 0 .157.053.157.158 0 .082-.018.232-.056.449-.037.217-.09.565-.157 1.044-.067.48-.15 1.127-.247 1.943-.09.809-.187 1.85-.292 3.122l-.079.91a289.926 289.926 0 00-.18 2.325c-.022.404-.044.79-.067 1.156-.022.36-.04.689-.056.989-.015.299-.022.539-.022.718 0 .517.052.925.157 1.224.112.292.296.438.55.438a.5.5 0 00.382-.19c.113-.128.221-.3.326-.517.105-.225.213-.483.325-.775.113-.3.236-.621.371-.966a.53.53 0 01.135-.202.236.236 0 01.168-.079zm6.031.349a43.83 43.83 0 01-.629 1.774c-.195.501-.39.925-.584 1.269-.194.337-.404.591-.629.764-.217.172-.46.258-.73.258a.662.662 0 01-.471-.18c-.12-.12-.221-.254-.304-.404a2.6 2.6 0 01-.19-.427 5.687 5.687 0 00-.102-.348c-.007-.03-.018-.045-.033-.045-.015 0-.03.011-.045.034a2.192 2.192 0 01-.213.36c-.098.141-.221.287-.371.437a2.64 2.64 0 01-.494.404c-.188.113-.39.169-.607.169a.888.888 0 01-.505-.168 1.606 1.606 0 01-.416-.45 2.478 2.478 0 01-.28-.685 3.052 3.052 0 01-.113-.842c0-.651.105-1.262.315-1.83.202-.577.535-1.154 1-1.73.224-.277.46-.524.707-.741.254-.218.501-.397.741-.54.24-.15.468-.261.685-.336.225-.075.416-.113.573-.113a.93.93 0 01.314.056.697.697 0 01.281.191.91.91 0 01.19.36c.053.142.08.318.08.528 0 .224-.038.468-.113.73-.067.262-.172.509-.314.74a1.919 1.919 0 01-.506.562c-.202.15-.43.225-.685.225-.157 0-.236-.06-.236-.18 0-.082.02-.217.057-.404a2.31 2.31 0 00.056-.775 1.172 1.172 0 00-.056-.28.649.649 0 00-.124-.225.269.269 0 00-.213-.09c-.202 0-.378.094-.528.28-.15.188-.277.416-.382.686a5.16 5.16 0 00-.224.842 4.355 4.355 0 00-.08.752c0 .285.023.525.068.72.045.186.105.34.18.46a.734.734 0 00.258.247.716.716 0 00.303.067.998.998 0 00.663-.247c.195-.172.363-.36.505-.561.143-.21.259-.397.349-.562.097-.172.175-.258.235-.258.068 0 .113.078.135.236.045.336.094.613.146.83.053.218.105.39.157.517.053.12.105.206.158.258.06.045.12.068.18.068.112 0 .224-.064.336-.191.113-.135.225-.315.337-.54.112-.224.228-.486.348-.785l.382-.955c.082-.187.18-.28.292-.28.112 0 .169.067.169.201a.458.458 0 01-.023.147zm4.133 0c-.24.688-.457 1.287-.651 1.796-.188.51-.379.936-.573 1.28-.195.338-.404.592-.63.764a1.33 1.33 0 01-.808.247c-.18 0-.37-.052-.573-.157-.202-.097-.389-.288-.561-.573-.172-.284-.314-.68-.427-1.19-.112-.517-.168-1.187-.168-2.01 0-.217.007-.502.022-.854.023-.36.045-.756.068-1.19a157.552 157.552 0 01.224-2.875 2.305 2.305 0 00-.1.022h-.102c-.404.045-.7.086-.887.124-.187.03-.3.063-.337.1a.138.138 0 00-.056.113v.113a.438.438 0 01-.034.09c-.022.022-.063.033-.123.033a.504.504 0 01-.135-.022.727.727 0 01-.169-.09.58.58 0 01-.146-.157.478.478 0 01-.056-.236c0-.083.019-.169.056-.259.03-.09.072-.176.124-.258.052-.09.13-.198.236-.326.097-.127.232-.254.404-.382.165-.134.37-.258.618-.37.247-.112.539-.202.876-.27.037-.314.075-.591.112-.83.045-.248.09-.465.135-.652.045-.195.086-.367.123-.517.045-.157.09-.3.135-.426.09-.292.202-.513.337-.663.135-.157.288-.322.46-.494.188-.187.345-.31.472-.37.135-.068.236-.106.303-.113.068 0 .128.022.18.067.06.038.09.109.09.214a.977.977 0 01-.034.258c-.022.082-.06.228-.112.438-.045.21-.101.468-.169.775-.06.3-.123.64-.19 1.022a21.77 21.77 0 00-.18 1.201c.404.03.741.083 1.01.158l.506.123a.916.916 0 01.258.124.495.495 0 01.124.19c.03.06.063.11.1.147l.124.1c.045.03.083.064.113.102.03.037.045.09.045.157a.4.4 0 01-.045.18.219.219 0 01-.101.1c-.053.03-.15.06-.292.09a52.85 52.85 0 01-.517.08l-.696.078c-.255.022-.52.049-.798.079-.09.928-.18 1.823-.27 2.684a24.476 24.476 0 00-.123 2.302c0 .344.019.659.056.943.045.285.109.532.191.741.083.203.18.36.292.472.12.112.255.169.405.169.134 0 .258-.06.37-.18.113-.127.225-.3.337-.517.112-.217.225-.475.337-.775.12-.3.247-.629.382-.988.067-.187.165-.28.292-.28.12 0 .18.067.18.201a.328.328 0 01-.012.08.347.347 0 01-.022.067zm5.166-.349c.045 0 .082.015.112.045.038.03.056.075.056.135a.43.43 0 01-.033.168c-.113.315-.236.61-.37.888-.128.277-.248.524-.36.74-.135.248-.266.48-.393.697a5.989 5.989 0 01-.528.708 4.131 4.131 0 01-.618.584 2.987 2.987 0 01-.73.393c-.262.097-.539.146-.83.146-.218 0-.458-.038-.72-.112a1.857 1.857 0 01-.718-.416c-.218-.202-.397-.48-.54-.831-.15-.352-.224-.805-.224-1.359 0-.254.026-.513.079-.775.044-.262.112-.513.202-.752a5.51 5.51 0 01.28-.674c.113-.21.225-.393.337-.55.195-.27.4-.52.618-.753.217-.24.434-.445.651-.618.225-.18.442-.318.652-.415.21-.097.404-.146.584-.146.284 0 .531.108.741.326.217.217.326.527.326.932 0 .352-.09.718-.27 1.1-.18.375-.404.742-.674 1.1a10.124 10.124 0 01-1.707 1.763c.135.338.307.585.517.742.21.157.423.236.64.236.337 0 .636-.108.899-.326.269-.217.509-.483.718-.797.217-.314.404-.644.562-.988.164-.345.31-.648.438-.91a.784.784 0 01.135-.202.213.213 0 01.168-.079zm-4.369.54c0 .441.034.83.101 1.167a6.135 6.135 0 00.865-1.1c.127-.202.228-.408.303-.618.083-.21.124-.412.124-.606 0-.3-.064-.532-.191-.697-.127-.164-.255-.247-.382-.247-.075 0-.16.049-.258.146-.09.09-.18.225-.27.405-.082.18-.153.4-.213.662a4.44 4.44 0 00-.079.887z" fill="#05533F"/></svg>