<svg width="249" height="249" viewBox="0 0 249 249" fill="none" xmlns="http://www.w3.org/2000/svg">
<circle cx="124.5" cy="124.5" r="124.5" fill="#9BEBFC"/>
<circle cx="124.783" cy="123.788" r="113.215" stroke="white" stroke-width="1.992"/>
<path d="M108.845 117.844C107.841 118.72 106.643 119.345 105.35 119.668C103.63 120.105 102.51 119.33 100.9 118.977C101.043 118.667 101.115 117.997 101.284 117.634C100.121 117.378 99.0254 116.878 98.0688 116.169C97.1121 115.46 96.3161 114.557 95.7329 113.518C95.9848 113.341 96.1929 112.884 96.4177 112.68C94.4829 110.395 93.1751 107.646 92.6225 104.703C94.4821 103.675 96.9884 104.044 98.8383 104.342C98.7275 104.049 98.8274 103.499 98.6895 103.18C100.421 102.595 103.088 104.006 104.609 104.735C104.365 104.331 104.222 103.874 104.191 103.403C107.888 102.767 112.337 112.662 111.044 116.157L108.845 117.844Z" fill="#639B00"/>
<path d="M110.418 115.457C109.255 115.718 108.078 115.907 106.893 116.024C105.708 116.385 104.486 116.607 103.25 116.686C104.197 115.47 106.235 115.792 107.077 114.724C105.553 114.752 104.029 114.687 102.513 114.529C101.415 114.476 99.3737 114.877 98.5876 114.085C99.9907 113.431 101.436 112.871 102.914 112.41C101.363 111.48 99.5012 111.277 98.0017 110.146C96.8423 109.108 95.8 107.946 94.8935 106.681C97.179 107.561 99.1921 109.1 101.622 109.738C101.359 108.257 100.693 106.877 99.6973 105.75C102.381 106.357 103.271 111.054 105.297 112.553C105.147 110.741 104.797 108.951 104.251 107.216C106.728 109.471 107.155 114.549 110.742 115.693L110.418 115.457Z" fill="#BDE885"/>
<path d="M114.215 120.049C115.522 121.041 120.735 120.921 122.708 120.605C126.644 120.001 128.639 117.578 131.898 115.557C131.416 115.057 130.908 113.789 130.392 113.368C135.054 110.511 138.509 106.045 140.102 100.815C139.471 100.699 138.773 99.9836 138.175 99.7901C141.051 94.0906 142.391 87.7405 142.066 81.3652C137.588 80.996 132.33 83.7542 128.537 85.903C128.618 85.2425 128.196 84.2428 128.244 83.5525C124.195 83.8769 119.196 88.8476 116.288 91.5292C116.601 90.597 116.671 89.6002 116.491 88.6335C108.183 90.5361 103.788 113.211 108.658 118.879L114.215 120.049Z" fill="#3D6E00"/>
<path d="M109.692 116.754C112.397 116.427 114.956 115.466 117.601 114.882C120.387 114.563 123.133 113.955 125.794 113.069C123.109 111.504 118.902 113.862 116.483 112.472C119.785 111.233 123.022 109.827 126.181 108.259C128.55 107.309 133.135 106.272 134.398 104.076C130.987 104.003 127.574 104.149 124.182 104.514C127.015 101.43 130.834 99.5087 133.536 96.0437C135.461 93.1203 137.078 90.0053 138.36 86.7486C133.912 90.3941 130.42 95.0202 125.684 98.3265C125.088 95.383 126.521 91.6692 127.65 89.0302C122.276 92.4191 122.792 102.128 119.288 106.78C118.605 103.085 118.382 99.3206 118.626 95.5714C114.527 101.978 116.326 112.081 109.234 117.285L109.692 116.754Z" fill="#63A200"/>
<path d="M56.891 125.074C56.9989 125.382 57.0528 125.605 57.0528 125.744C57.0528 125.914 57.0066 126.037 56.9141 126.114C56.8371 126.191 56.7524 126.33 56.6599 126.53C56.5829 126.699 56.4827 126.823 56.3595 126.9C56.2516 126.961 56.1361 127.023 56.0128 127.084C55.905 127.146 55.7971 127.215 55.6893 127.292C55.5814 127.354 55.4967 127.462 55.4351 127.616C55.3272 127.878 55.1654 128.071 54.9497 128.194C54.7494 128.317 54.526 128.379 54.2795 128.379C54.033 128.379 53.7865 128.317 53.54 128.194C53.3089 128.055 53.047 127.886 52.7542 127.685C52.4769 127.485 52.1533 127.269 51.7836 127.038C51.4292 126.792 50.9901 126.568 50.4663 126.368C49.9424 126.168 49.3261 126.006 48.6174 125.883C47.9087 125.744 47.0767 125.675 46.1215 125.675C44.7348 125.675 43.4869 125.875 42.3775 126.276C41.2836 126.661 40.2745 127.346 39.35 128.332C38.7338 128.995 38.2793 129.681 37.9865 130.389C37.6938 131.083 37.5474 131.753 37.5474 132.4C37.5474 132.985 37.6784 133.509 37.9403 133.971C38.2176 134.434 38.5874 134.857 39.0496 135.243C39.5118 135.612 40.0511 135.959 40.6674 136.282C41.299 136.591 41.9693 136.899 42.678 137.207C43.4021 137.5 44.1494 137.792 44.9197 138.085C45.7055 138.378 46.4835 138.694 47.2539 139.033C48.394 139.541 49.4186 140.103 50.3276 140.72C51.2366 141.321 52.007 141.991 52.6387 142.73C53.2704 143.47 53.7557 144.271 54.0946 145.134C54.4336 145.997 54.6031 146.929 54.6031 147.93C54.6031 149.209 54.3797 150.418 53.9329 151.559C53.4861 152.683 52.8004 153.669 51.876 154.517C50.9516 155.364 49.7884 156.034 48.3863 156.527C46.9997 157.036 45.3588 157.29 43.4637 157.29C42.1387 157.29 40.9755 157.128 39.974 156.805C38.9726 156.481 38.1252 156.096 37.4319 155.649C36.754 155.218 36.2147 154.779 35.8141 154.332C35.4289 153.9 35.1824 153.562 35.0746 153.315C34.9975 153.146 34.9436 153.007 34.9128 152.899C34.8974 152.776 34.8897 152.676 34.8897 152.599C34.8897 152.429 34.9205 152.306 34.9821 152.229C35.0592 152.152 35.1824 151.982 35.3519 151.72C35.4135 151.613 35.4983 151.536 35.6061 151.489C35.714 151.428 35.8218 151.374 35.9297 151.328C36.0529 151.266 36.1685 151.197 36.2763 151.12C36.3842 151.042 36.4766 150.927 36.5537 150.773C36.8002 150.264 37.1622 150.01 37.6399 150.01C37.9018 150.01 38.156 150.103 38.4025 150.288C38.6644 150.457 38.9495 150.673 39.2576 150.935C39.5657 151.197 39.9124 151.489 40.2976 151.813C40.6982 152.121 41.1681 152.406 41.7073 152.668C42.2466 152.93 42.8629 153.153 43.5562 153.338C44.2649 153.508 45.0892 153.592 46.029 153.592C47.2 153.592 48.186 153.477 48.9872 153.246C49.7884 153.015 50.4277 152.699 50.9054 152.298C51.3984 151.882 51.7528 151.397 51.9685 150.842C52.1842 150.288 52.292 149.687 52.292 149.04C52.292 148.238 52.1379 147.545 51.8298 146.96C51.5371 146.374 51.1211 145.858 50.5818 145.411C50.058 144.964 49.4263 144.572 48.6867 144.233C47.9472 143.878 47.1306 143.532 46.237 143.193C45.3588 142.854 44.419 142.507 43.4175 142.153C42.4315 141.783 41.4223 141.359 40.39 140.882C39.5735 140.512 38.8262 140.103 38.1483 139.657C37.4704 139.194 36.8849 138.678 36.3919 138.108C35.9143 137.538 35.5445 136.899 35.2826 136.19C35.0207 135.466 34.8897 134.649 34.8897 133.74C34.8897 132.646 35.0515 131.576 35.375 130.528C35.714 129.465 36.1839 128.471 36.7848 127.547C37.3856 126.607 38.1021 125.744 38.9341 124.958C39.7814 124.173 40.7059 123.495 41.7073 122.925C42.7088 122.339 43.7796 121.892 44.9197 121.584C46.0598 121.261 47.2385 121.099 48.4556 121.099C49.7961 121.099 50.9747 121.268 51.9916 121.607C53.0084 121.931 53.8635 122.316 54.5568 122.763C55.2502 123.194 55.7894 123.633 56.1746 124.08C56.5598 124.511 56.7986 124.843 56.891 125.074ZM73.1147 146.081C72.6217 147.453 72.1749 148.662 71.7743 149.71C71.3891 150.742 70.9962 151.613 70.5956 152.321C70.195 153.015 69.7559 153.538 69.2783 153.893C68.8161 154.247 68.2692 154.424 67.6375 154.424C67.0982 154.424 66.6437 154.27 66.2739 153.962C65.9042 153.639 65.6114 153.238 65.3957 152.76C65.18 152.267 65.026 151.728 64.9335 151.143C64.8411 150.557 64.7949 149.995 64.7949 149.456C64.7949 149.055 64.7949 148.67 64.7949 148.3C64.7949 147.93 64.8103 147.584 64.8411 147.26C64.5021 148.631 64.1555 149.779 63.8011 150.704C63.4621 151.628 63.1155 152.367 62.7611 152.922C62.4068 153.477 62.0293 153.877 61.6287 154.124C61.2435 154.355 60.8352 154.471 60.4038 154.471C60.0803 154.471 59.749 154.386 59.4101 154.216C59.0865 154.062 58.7861 153.754 58.5088 153.292C58.2314 152.83 58.0003 152.183 57.8154 151.351C57.646 150.503 57.5612 149.394 57.5612 148.023C57.5612 147.684 57.5689 147.275 57.5843 146.798C57.5997 146.305 57.6306 145.796 57.6768 145.273C57.723 144.733 57.7769 144.209 57.8386 143.701C57.9156 143.177 58.008 142.707 58.1159 142.291C58.1621 142.106 58.2237 141.883 58.3008 141.621C58.3778 141.359 58.4548 141.19 58.5319 141.113C58.7014 140.959 58.84 140.82 58.9479 140.697C59.0711 140.573 59.1713 140.512 59.2483 140.512C59.3562 140.512 59.4409 140.558 59.5025 140.65C59.5796 140.727 59.6566 140.766 59.7336 140.766C59.7798 140.766 59.8646 140.727 59.9878 140.65C60.1265 140.573 60.2729 140.489 60.4269 140.396C60.581 140.304 60.7274 140.219 60.866 140.142C61.0201 140.065 61.128 140.026 61.1896 140.026C61.3745 140.026 61.4669 140.196 61.4669 140.535C61.4669 140.627 61.4592 140.735 61.4438 140.858C61.4284 140.982 61.4053 141.128 61.3745 141.297C61.2358 142.284 61.1357 143.239 61.074 144.163C61.0278 145.072 61.0047 146.051 61.0047 147.098C61.0047 147.684 61.0124 148.215 61.0278 148.693C61.0432 149.171 61.074 149.587 61.1203 149.941C61.1819 150.28 61.2743 150.549 61.3976 150.75C61.5209 150.935 61.6903 151.027 61.906 151.027C62.2142 151.027 62.4992 150.827 62.7611 150.426C63.023 150.01 63.2619 149.479 63.4776 148.832C63.7087 148.184 63.9244 147.468 64.1246 146.682C64.3249 145.897 64.5175 145.134 64.7024 144.394C64.8873 143.639 65.0722 142.946 65.2571 142.314C65.4574 141.683 65.6577 141.205 65.8579 140.882C66.0582 140.573 66.3202 140.319 66.6437 140.119C66.9827 139.919 67.2985 139.818 67.5912 139.818C67.9302 139.818 68.169 139.949 68.3077 140.211C68.4617 140.458 68.5388 140.943 68.5388 141.667C68.5388 142.191 68.5234 142.684 68.4926 143.146C68.4617 143.609 68.4309 144.086 68.4001 144.579C68.3693 145.072 68.3385 145.604 68.3077 146.174C68.2769 146.728 68.2615 147.352 68.2615 148.046C68.2615 148.677 68.2846 149.194 68.3308 149.594C68.3924 149.979 68.4694 150.28 68.5619 150.496C68.6543 150.711 68.7545 150.858 68.8623 150.935C68.9702 151.012 69.078 151.05 69.1859 151.05C69.4478 151.05 69.6943 150.935 69.9254 150.704C70.1565 150.472 70.3876 150.141 70.6187 149.71C70.8652 149.263 71.1118 148.724 71.3583 148.092C71.6202 147.46 71.9052 146.744 72.2134 145.943C72.2904 145.758 72.3828 145.619 72.4907 145.527C72.5985 145.419 72.7141 145.365 72.8374 145.365C72.9298 145.365 73.0068 145.403 73.0685 145.481C73.1455 145.542 73.184 145.635 73.184 145.758C73.184 145.866 73.1609 145.974 73.1147 146.081ZM94.3534 145.365C94.5691 145.365 94.6769 145.488 94.6769 145.735C94.6769 145.827 94.6538 145.943 94.6076 146.081C94.2532 147.114 93.9143 148.061 93.5907 148.924C93.2826 149.787 92.9744 150.557 92.6663 151.235C92.4814 151.651 92.2811 152.052 92.0654 152.437C91.8497 152.822 91.6032 153.169 91.3259 153.477C91.0485 153.77 90.7327 154.008 90.3783 154.193C90.024 154.378 89.6157 154.471 89.1535 154.471C88.8453 154.471 88.5449 154.424 88.2521 154.332C87.9594 154.255 87.6898 154.108 87.4433 153.893C87.1968 153.662 86.9888 153.361 86.8193 152.991C86.6498 152.622 86.5343 152.159 86.4726 151.605C86.4418 151.266 86.4187 150.912 86.4033 150.542C86.3879 150.172 86.3802 149.802 86.3802 149.432C86.3802 148.6 86.4033 147.815 86.4495 147.075C86.4957 146.32 86.5189 145.75 86.5189 145.365C86.5189 145.057 86.4649 144.833 86.3571 144.695C86.2646 144.556 86.1568 144.487 86.0335 144.487C85.8641 144.487 85.7331 144.556 85.6406 144.695C85.5636 144.818 85.4943 144.964 85.4327 145.134C85.3556 145.319 85.2401 145.642 85.086 146.105C84.9319 146.551 84.7547 147.06 84.5544 147.63C84.3696 148.2 84.1693 148.801 83.9536 149.432C83.7379 150.049 83.5376 150.619 83.3527 151.143C83.1216 151.821 82.8982 152.367 82.6825 152.783C82.4822 153.184 82.2819 153.5 82.0816 153.731C81.8967 153.962 81.7118 154.116 81.527 154.193C81.3421 154.27 81.1572 154.309 80.9723 154.309C80.8182 154.309 80.6565 154.278 80.487 154.216C80.3175 154.155 80.1557 154.055 80.0017 153.916C79.863 153.777 79.7397 153.592 79.6319 153.361C79.5394 153.115 79.4855 152.814 79.4701 152.46C79.4547 152.213 79.447 151.967 79.447 151.72C79.447 151.458 79.447 151.197 79.447 150.935C79.447 150.365 79.4547 149.795 79.4701 149.224C79.4855 148.654 79.5009 148.123 79.5163 147.63C79.5471 147.137 79.5703 146.69 79.5857 146.289C79.6011 145.889 79.6088 145.581 79.6088 145.365C79.6088 145.057 79.5548 144.833 79.447 144.695C79.3546 144.556 79.2467 144.487 79.1234 144.487C78.9848 144.487 78.8615 144.548 78.7537 144.672C78.6612 144.795 78.5842 144.941 78.5226 145.111C78.4455 145.296 78.33 145.627 78.1759 146.105C78.0218 146.567 77.8447 147.098 77.6444 147.699C77.4595 148.285 77.2592 148.901 77.0435 149.548C76.8278 150.18 76.6275 150.757 76.4426 151.281C76.1961 151.975 75.965 152.529 75.7493 152.945C75.549 153.361 75.3487 153.685 75.1484 153.916C74.9481 154.132 74.7555 154.278 74.5707 154.355C74.4012 154.432 74.224 154.471 74.0391 154.471C73.885 154.471 73.7233 154.44 73.5538 154.378C73.3843 154.316 73.2225 154.216 73.0685 154.078C72.9298 153.924 72.8065 153.731 72.6987 153.5C72.6063 153.253 72.56 152.953 72.56 152.599C72.5446 152.136 72.5369 151.713 72.5369 151.328C72.5369 150.942 72.5369 150.557 72.5369 150.172C72.5369 149.633 72.5369 149.078 72.5369 148.508C72.5523 147.923 72.5754 147.237 72.6063 146.451C72.6217 145.758 72.6679 145.103 72.7449 144.487C72.8374 143.87 72.9375 143.331 73.0454 142.869C73.1532 142.391 73.2533 141.999 73.3458 141.69C73.4536 141.382 73.5384 141.19 73.6 141.113C73.7079 140.989 73.8234 140.866 73.9467 140.743C74.0853 140.604 74.2163 140.535 74.3395 140.535C74.4628 140.535 74.5552 140.573 74.6169 140.65C74.6785 140.712 74.7478 140.743 74.8249 140.743C74.9173 140.743 75.0329 140.704 75.1715 140.627C75.3102 140.535 75.4797 140.427 75.68 140.304C75.7878 140.242 75.8957 140.18 76.0035 140.119C76.1114 140.042 76.2269 140.003 76.3502 140.003C76.5197 140.003 76.6044 140.204 76.6044 140.604C76.6044 140.727 76.5813 140.982 76.5351 141.367C76.5042 141.737 76.4734 142.106 76.4426 142.476C76.3964 143.139 76.3502 143.801 76.304 144.464C76.2577 145.111 76.2115 145.712 76.1653 146.266C76.1345 146.821 76.1114 147.299 76.096 147.699C76.0805 148.1 76.0728 148.377 76.0728 148.531C76.0728 148.778 76.0883 148.901 76.1191 148.901C76.1345 148.901 76.1961 148.755 76.304 148.462C76.4272 148.154 76.5736 147.761 76.7431 147.283C76.9279 146.79 77.1282 146.251 77.3439 145.665C77.575 145.065 77.8138 144.471 78.0604 143.886C78.3069 143.285 78.5534 142.723 78.7999 142.199C79.0618 141.66 79.316 141.22 79.5626 140.882C79.8707 140.45 80.1942 140.127 80.5332 139.911C80.8722 139.68 81.2034 139.564 81.527 139.564C82.1741 139.564 82.59 139.972 82.7749 140.789C82.9598 141.606 83.0523 142.815 83.0523 144.417C83.0523 145.111 83.0368 145.827 83.006 146.567C82.9752 147.306 82.9598 148.038 82.9598 148.762C82.9598 148.855 82.9752 148.901 83.006 148.901C83.0214 148.901 83.0831 148.755 83.1909 148.462C83.2988 148.154 83.4374 147.761 83.6069 147.283C83.7918 146.79 83.9998 146.243 84.2309 145.642C84.462 145.041 84.7008 144.448 84.9473 143.863C85.2092 143.262 85.4635 142.7 85.71 142.176C85.9719 141.652 86.2261 141.22 86.4726 140.882C86.7808 140.466 87.1043 140.142 87.4433 139.911C87.7822 139.68 88.1135 139.564 88.437 139.564C88.7144 139.564 88.9532 139.657 89.1535 139.842C89.3538 140.011 89.5078 140.258 89.6157 140.581C89.7389 140.889 89.8237 141.259 89.8699 141.69C89.9315 142.106 89.9623 142.569 89.9623 143.077C89.9623 143.354 89.9469 143.693 89.9161 144.094C89.9007 144.494 89.8776 144.918 89.8468 145.365C89.8314 145.812 89.816 146.274 89.8006 146.752C89.7852 147.214 89.7775 147.638 89.7775 148.023C89.7775 148.624 89.8006 149.117 89.8468 149.502C89.9084 149.887 89.9854 150.187 90.0779 150.403C90.1703 150.619 90.2782 150.765 90.4014 150.842C90.5247 150.919 90.6634 150.958 90.8174 150.958C91.0948 150.958 91.3413 150.834 91.557 150.588C91.7881 150.326 92.0115 149.972 92.2272 149.525C92.4583 149.078 92.6894 148.554 92.9205 147.953C93.1516 147.337 93.4135 146.667 93.7063 145.943C93.8449 145.558 94.0606 145.365 94.3534 145.365ZM115.846 145.365C116.062 145.365 116.17 145.488 116.17 145.735C116.17 145.827 116.147 145.943 116.1 146.081C115.746 147.114 115.407 148.061 115.084 148.924C114.775 149.787 114.467 150.557 114.159 151.235C113.974 151.651 113.774 152.052 113.558 152.437C113.343 152.822 113.096 153.169 112.819 153.477C112.541 153.77 112.226 154.008 111.871 154.193C111.517 154.378 111.109 154.471 110.646 154.471C110.338 154.471 110.038 154.424 109.745 154.332C109.452 154.255 109.183 154.108 108.936 153.893C108.69 153.662 108.482 153.361 108.312 152.991C108.143 152.622 108.027 152.159 107.966 151.605C107.935 151.266 107.912 150.912 107.896 150.542C107.881 150.172 107.873 149.802 107.873 149.432C107.873 148.6 107.896 147.815 107.942 147.075C107.989 146.32 108.012 145.75 108.012 145.365C108.012 145.057 107.958 144.833 107.85 144.695C107.758 144.556 107.65 144.487 107.526 144.487C107.357 144.487 107.226 144.556 107.134 144.695C107.057 144.818 106.987 144.964 106.926 145.134C106.849 145.319 106.733 145.642 106.579 146.105C106.425 146.551 106.248 147.06 106.047 147.63C105.862 148.2 105.662 148.801 105.446 149.432C105.231 150.049 105.03 150.619 104.846 151.143C104.614 151.821 104.391 152.367 104.175 152.783C103.975 153.184 103.775 153.5 103.574 153.731C103.39 153.962 103.205 154.116 103.02 154.193C102.835 154.27 102.65 154.309 102.465 154.309C102.311 154.309 102.149 154.278 101.98 154.216C101.81 154.155 101.649 154.055 101.495 153.916C101.356 153.777 101.233 153.592 101.125 153.361C101.032 153.115 100.978 152.814 100.963 152.46C100.948 152.213 100.94 151.967 100.94 151.72C100.94 151.458 100.94 151.197 100.94 150.935C100.94 150.365 100.948 149.795 100.963 149.224C100.978 148.654 100.994 148.123 101.009 147.63C101.04 147.137 101.063 146.69 101.079 146.289C101.094 145.889 101.102 145.581 101.102 145.365C101.102 145.057 101.048 144.833 100.94 144.695C100.847 144.556 100.74 144.487 100.616 144.487C100.478 144.487 100.354 144.548 100.247 144.672C100.154 144.795 100.077 144.941 100.015 145.111C99.9384 145.296 99.8229 145.627 99.6688 146.105C99.5147 146.567 99.3375 147.098 99.1373 147.699C98.9524 148.285 98.7521 148.901 98.5364 149.548C98.3207 150.18 98.1204 150.757 97.9355 151.281C97.689 151.975 97.4579 152.529 97.2422 152.945C97.0419 153.361 96.8416 153.685 96.6413 153.916C96.441 154.132 96.2484 154.278 96.0635 154.355C95.8941 154.432 95.7169 154.471 95.532 154.471C95.3779 154.471 95.2162 154.44 95.0467 154.378C94.8772 154.316 94.7154 154.216 94.5614 154.078C94.4227 153.924 94.2994 153.731 94.1916 153.5C94.0991 153.253 94.0529 152.953 94.0529 152.599C94.0375 152.136 94.0298 151.713 94.0298 151.328C94.0298 150.942 94.0298 150.557 94.0298 150.172C94.0298 149.633 94.0298 149.078 94.0298 148.508C94.0452 147.923 94.0683 147.237 94.0991 146.451C94.1145 145.758 94.1608 145.103 94.2378 144.487C94.3302 143.87 94.4304 143.331 94.5382 142.869C94.6461 142.391 94.7462 141.999 94.8387 141.69C94.9465 141.382 95.0313 141.19 95.0929 141.113C95.2007 140.989 95.3163 140.866 95.4396 140.743C95.5782 140.604 95.7092 140.535 95.8324 140.535C95.9557 140.535 96.0481 140.573 96.1098 140.65C96.1714 140.712 96.2407 140.743 96.3178 140.743C96.4102 140.743 96.5258 140.704 96.6644 140.627C96.8031 140.535 96.9726 140.427 97.1729 140.304C97.2807 140.242 97.3886 140.18 97.4964 140.119C97.6043 140.042 97.7198 140.003 97.8431 140.003C98.0125 140.003 98.0973 140.204 98.0973 140.604C98.0973 140.727 98.0742 140.982 98.0279 141.367C97.9971 141.737 97.9663 142.106 97.9355 142.476C97.8893 143.139 97.8431 143.801 97.7968 144.464C97.7506 145.111 97.7044 145.712 97.6582 146.266C97.6274 146.821 97.6043 147.299 97.5888 147.699C97.5734 148.1 97.5657 148.377 97.5657 148.531C97.5657 148.778 97.5811 148.901 97.612 148.901C97.6274 148.901 97.689 148.755 97.7968 148.462C97.9201 148.154 98.0665 147.761 98.2359 147.283C98.4208 146.79 98.6211 146.251 98.8368 145.665C99.0679 145.065 99.3067 144.471 99.5532 143.886C99.7998 143.285 100.046 142.723 100.293 142.199C100.555 141.66 100.809 141.22 101.055 140.882C101.364 140.45 101.687 140.127 102.026 139.911C102.365 139.68 102.696 139.564 103.02 139.564C103.667 139.564 104.083 139.972 104.268 140.789C104.453 141.606 104.545 142.815 104.545 144.417C104.545 145.111 104.53 145.827 104.499 146.567C104.468 147.306 104.453 148.038 104.453 148.762C104.453 148.855 104.468 148.901 104.499 148.901C104.514 148.901 104.576 148.755 104.684 148.462C104.792 148.154 104.93 147.761 105.1 147.283C105.285 146.79 105.493 146.243 105.724 145.642C105.955 145.041 106.194 144.448 106.44 143.863C106.702 143.262 106.956 142.7 107.203 142.176C107.465 141.652 107.719 141.22 107.966 140.882C108.274 140.466 108.597 140.142 108.936 139.911C109.275 139.68 109.606 139.564 109.93 139.564C110.207 139.564 110.446 139.657 110.646 139.842C110.847 140.011 111.001 140.258 111.109 140.581C111.232 140.889 111.317 141.259 111.363 141.69C111.424 142.106 111.455 142.569 111.455 143.077C111.455 143.354 111.44 143.693 111.409 144.094C111.394 144.494 111.37 144.918 111.34 145.365C111.324 145.812 111.309 146.274 111.293 146.752C111.278 147.214 111.27 147.638 111.27 148.023C111.27 148.624 111.293 149.117 111.34 149.502C111.401 149.887 111.478 150.187 111.571 150.403C111.663 150.619 111.771 150.765 111.894 150.842C112.018 150.919 112.156 150.958 112.31 150.958C112.588 150.958 112.834 150.834 113.05 150.588C113.281 150.326 113.504 149.972 113.72 149.525C113.951 149.078 114.182 148.554 114.413 147.953C114.644 147.337 114.906 146.667 115.199 145.943C115.338 145.558 115.554 145.365 115.846 145.365ZM126.731 145.365C126.824 145.365 126.901 145.396 126.962 145.457C127.039 145.519 127.078 145.611 127.078 145.735C127.078 145.858 127.055 145.974 127.009 146.081C126.778 146.728 126.523 147.337 126.246 147.907C125.984 148.477 125.738 148.986 125.506 149.432C125.229 149.941 124.96 150.418 124.698 150.865C124.374 151.374 124.012 151.859 123.611 152.321C123.226 152.768 122.803 153.169 122.34 153.523C121.878 153.862 121.377 154.132 120.838 154.332C120.299 154.532 119.729 154.632 119.128 154.632C118.681 154.632 118.188 154.555 117.649 154.401C117.125 154.247 116.632 153.962 116.17 153.546C115.723 153.13 115.353 152.56 115.06 151.836C114.752 151.112 114.598 150.18 114.598 149.04C114.598 148.516 114.652 147.984 114.76 147.445C114.852 146.906 114.991 146.39 115.176 145.897C115.346 145.403 115.538 144.941 115.754 144.51C115.985 144.078 116.216 143.701 116.447 143.377C116.848 142.823 117.271 142.307 117.718 141.829C118.165 141.336 118.612 140.912 119.059 140.558C119.521 140.188 119.968 139.903 120.399 139.703C120.83 139.503 121.231 139.402 121.601 139.402C122.186 139.402 122.695 139.626 123.126 140.073C123.573 140.519 123.796 141.159 123.796 141.991C123.796 142.715 123.611 143.47 123.242 144.256C122.872 145.026 122.41 145.781 121.855 146.521C121.3 147.26 120.707 147.946 120.075 148.577C119.444 149.209 118.866 149.733 118.342 150.149C118.62 150.842 118.974 151.351 119.405 151.674C119.837 151.998 120.276 152.159 120.723 152.159C121.416 152.159 122.032 151.936 122.571 151.489C123.126 151.042 123.619 150.496 124.051 149.848C124.497 149.201 124.883 148.523 125.206 147.815C125.545 147.106 125.845 146.482 126.107 145.943C126.2 145.758 126.292 145.619 126.385 145.527C126.477 145.419 126.593 145.365 126.731 145.365ZM117.741 146.474C117.741 147.383 117.811 148.184 117.949 148.878C118.257 148.57 118.566 148.223 118.874 147.838C119.197 147.437 119.482 147.029 119.729 146.613C119.991 146.197 120.199 145.773 120.353 145.342C120.522 144.91 120.607 144.494 120.607 144.094C120.607 143.478 120.476 143 120.214 142.661C119.952 142.322 119.69 142.153 119.428 142.153C119.274 142.153 119.097 142.253 118.897 142.453C118.712 142.638 118.527 142.915 118.342 143.285C118.173 143.655 118.026 144.109 117.903 144.649C117.795 145.172 117.741 145.781 117.741 146.474ZM137.408 146.081C137.054 147.283 136.692 148.392 136.322 149.409C135.952 150.426 135.56 151.304 135.144 152.044C134.728 152.783 134.265 153.361 133.757 153.777C133.264 154.193 132.702 154.401 132.07 154.401C131.3 154.401 130.676 154.016 130.198 153.246C129.736 152.46 129.505 151.428 129.505 150.149C129.505 149.594 129.528 149.07 129.574 148.577C129.636 148.084 129.697 147.607 129.759 147.144C129.836 146.682 129.898 146.235 129.944 145.804C130.005 145.373 130.036 144.949 130.036 144.533C130.036 144.086 129.982 143.793 129.874 143.655C129.767 143.516 129.628 143.447 129.458 143.447C129.428 143.447 129.397 143.454 129.366 143.47C129.335 143.47 129.274 143.478 129.181 143.493C129.104 143.493 128.981 143.508 128.811 143.539C128.657 143.555 128.442 143.578 128.164 143.609C127.995 143.978 127.856 144.294 127.748 144.556C127.64 144.803 127.548 145.018 127.471 145.203C127.394 145.388 127.325 145.55 127.263 145.689C127.217 145.812 127.17 145.943 127.124 146.081C127.001 146.374 126.893 146.559 126.801 146.636C126.708 146.698 126.6 146.728 126.477 146.728C126.385 146.728 126.308 146.69 126.246 146.613C126.169 146.536 126.13 146.428 126.13 146.289C126.13 146.197 126.154 146.089 126.2 145.966C126.246 145.827 126.3 145.658 126.362 145.457C126.439 145.242 126.516 144.972 126.593 144.649C126.685 144.325 126.778 143.924 126.87 143.447C126.562 143.308 126.3 142.985 126.084 142.476C125.853 141.952 125.738 141.344 125.738 140.65C125.738 140.08 125.838 139.503 126.038 138.917C126.223 138.332 126.454 137.8 126.731 137.322C127.024 136.829 127.332 136.429 127.656 136.121C127.995 135.813 128.295 135.659 128.557 135.659C128.896 135.659 129.181 135.867 129.412 136.282C129.659 136.683 129.782 137.145 129.782 137.669C129.782 137.946 129.751 138.231 129.69 138.524C129.628 138.802 129.559 139.063 129.482 139.31C129.42 139.541 129.358 139.757 129.297 139.957C129.235 140.142 129.204 140.288 129.204 140.396C129.204 140.535 129.258 140.604 129.366 140.604C129.443 140.604 129.582 140.566 129.782 140.489L130.914 139.98C131.33 139.811 131.685 139.726 131.977 139.726C132.47 139.726 132.794 139.88 132.948 140.188C133.118 140.496 133.202 140.951 133.202 141.552C133.202 141.814 133.172 142.276 133.11 142.938C133.048 143.585 132.979 144.31 132.902 145.111C132.84 145.897 132.779 146.682 132.717 147.468C132.671 148.254 132.648 148.893 132.648 149.386C132.648 149.925 132.702 150.326 132.809 150.588C132.933 150.834 133.187 150.958 133.572 150.958C133.849 150.958 134.119 150.796 134.381 150.472C134.658 150.149 134.92 149.741 135.167 149.248C135.413 148.755 135.644 148.215 135.86 147.63C136.091 147.044 136.299 146.482 136.484 145.943C136.623 145.558 136.823 145.365 137.085 145.365C137.331 145.365 137.455 145.504 137.455 145.781C137.455 145.827 137.447 145.873 137.432 145.92C137.432 145.966 137.424 146.02 137.408 146.081ZM147.623 128.564C147.777 128.225 147.993 127.955 148.27 127.755C148.548 127.539 148.864 127.431 149.218 127.431C149.341 127.431 149.503 127.47 149.703 127.547C149.904 127.624 150.004 127.747 150.004 127.916C150.004 128.04 149.988 128.155 149.958 128.263C149.942 128.356 149.919 128.487 149.888 128.656C149.611 129.966 149.364 131.298 149.149 132.654C148.948 134.01 148.771 135.343 148.617 136.652C148.463 137.962 148.332 139.225 148.224 140.442C148.132 141.644 148.055 142.761 147.993 143.793C147.947 144.826 147.908 145.742 147.878 146.544C147.862 147.329 147.854 147.961 147.854 148.439C147.854 149.209 147.847 149.995 147.831 150.796C147.831 151.597 147.831 152.352 147.831 153.061C147.831 153.754 147.824 154.37 147.808 154.91C147.808 155.449 147.808 155.834 147.808 156.065C147.808 156.127 147.808 156.212 147.808 156.319C147.808 156.427 147.793 156.527 147.762 156.62C147.731 156.728 147.677 156.82 147.6 156.897C147.539 156.974 147.446 157.013 147.323 157.013C147.123 157.013 146.938 156.974 146.768 156.897C146.599 156.82 146.437 156.728 146.283 156.62C146.129 156.527 145.975 156.443 145.821 156.366C145.682 156.289 145.543 156.25 145.405 156.25C145.235 156.25 145.097 156.304 144.989 156.412C144.881 156.52 144.75 156.574 144.596 156.574C144.411 156.574 144.265 156.527 144.157 156.435C144.049 156.343 143.972 156.227 143.926 156.088C143.879 155.95 143.849 155.803 143.833 155.649C143.833 155.495 143.833 155.356 143.833 155.233C143.833 154.94 143.833 154.478 143.833 153.847C143.849 153.215 143.864 152.506 143.879 151.72C143.91 150.919 143.941 150.087 143.972 149.224C144.003 148.346 144.034 147.522 144.064 146.752C144.111 145.858 144.164 144.903 144.226 143.886C144.303 142.854 144.388 141.829 144.48 140.812C144.573 139.795 144.665 138.809 144.758 137.854C144.866 136.883 144.958 136.005 145.035 135.219C145.127 134.418 145.204 133.74 145.266 133.186C145.343 132.631 145.397 132.246 145.428 132.03C145.536 131.352 145.644 130.774 145.751 130.297C145.875 129.819 146.006 129.496 146.144 129.326C146.252 129.188 146.383 129.064 146.537 128.956C146.66 128.864 146.814 128.779 146.999 128.702C147.184 128.61 147.392 128.564 147.623 128.564ZM150.813 124.889C149.673 124.889 148.509 125.012 147.323 125.259C146.137 125.49 145.058 125.875 144.087 126.414C143.117 126.953 142.316 127.67 141.684 128.564C141.068 129.442 140.76 130.536 140.76 131.845C140.76 132.523 140.844 133.17 141.014 133.787C141.183 134.403 141.384 134.965 141.615 135.474C141.846 135.982 142.077 136.421 142.308 136.791C142.539 137.145 142.724 137.407 142.863 137.577C142.94 137.669 143.009 137.777 143.071 137.9C143.132 138.023 143.163 138.131 143.163 138.224C143.163 138.347 143.109 138.455 143.001 138.547C142.909 138.64 142.732 138.686 142.47 138.686C142.1 138.686 141.607 138.563 140.991 138.316C140.39 138.054 139.797 137.661 139.211 137.138C138.641 136.614 138.148 135.944 137.732 135.127C137.316 134.31 137.108 133.347 137.108 132.238C137.108 131.452 137.262 130.636 137.57 129.788C137.878 128.941 138.325 128.109 138.911 127.292C139.512 126.46 140.243 125.675 141.106 124.935C141.984 124.196 142.978 123.549 144.087 122.994C145.212 122.439 146.445 122 147.785 121.677C149.141 121.338 150.605 121.168 152.176 121.168C154.272 121.168 156.105 121.507 157.676 122.185C159.248 122.848 160.558 123.733 161.605 124.843C162.653 125.952 163.439 127.231 163.963 128.679C164.502 130.127 164.771 131.637 164.771 133.209C164.771 135.135 164.44 136.876 163.778 138.432C163.131 139.988 162.191 141.313 160.958 142.407C159.726 143.501 158.223 144.348 156.452 144.949C154.68 145.534 152.677 145.827 150.443 145.827C150.273 145.827 150.089 145.835 149.888 145.85C149.703 145.85 149.526 145.835 149.357 145.804C149.203 145.758 149.072 145.696 148.964 145.619C148.871 145.527 148.825 145.388 148.825 145.203C148.825 145.034 148.871 144.872 148.964 144.718C149.056 144.564 149.187 144.479 149.357 144.464C151.344 144.31 153.016 143.948 154.372 143.377C155.728 142.807 156.814 142.083 157.63 141.205C158.462 140.311 159.055 139.287 159.41 138.131C159.78 136.96 159.964 135.705 159.964 134.364C159.964 132.67 159.726 131.221 159.248 130.02C158.77 128.818 158.116 127.839 157.284 127.084C156.452 126.314 155.481 125.759 154.372 125.42C153.262 125.066 152.076 124.889 150.813 124.889ZM174.27 145.365C174.362 145.365 174.439 145.403 174.501 145.481C174.578 145.542 174.617 145.635 174.617 145.758C174.617 145.866 174.593 145.974 174.547 146.081C174.239 146.975 173.939 147.799 173.646 148.554C173.369 149.294 173.091 149.979 172.814 150.611C172.552 151.212 172.298 151.728 172.051 152.159C171.82 152.591 171.589 152.953 171.358 153.246C171.142 153.538 170.919 153.777 170.688 153.962C170.472 154.132 170.249 154.255 170.018 154.332C169.786 154.409 169.517 154.447 169.209 154.447C168.87 154.447 168.5 154.37 168.099 154.216C167.699 154.078 167.321 153.8 166.967 153.384C166.628 152.968 166.343 152.391 166.112 151.651C165.881 150.896 165.765 149.918 165.765 148.716C165.765 148.392 165.781 147.846 165.811 147.075C165.858 146.305 165.912 145.38 165.973 144.302C166.05 143.208 166.135 141.975 166.227 140.604C166.335 139.233 166.451 137.785 166.574 136.259C166.651 135.32 166.744 134.295 166.851 133.186C166.975 132.061 167.098 130.967 167.221 129.904C167.344 128.841 167.468 127.863 167.591 126.969C167.714 126.075 167.822 125.374 167.915 124.866C168.022 124.327 168.23 123.903 168.538 123.595C168.847 123.287 169.193 122.955 169.578 122.601C169.717 122.462 169.864 122.316 170.018 122.162C170.172 121.992 170.326 121.838 170.48 121.7C170.634 121.561 170.78 121.445 170.919 121.353C171.073 121.245 171.219 121.191 171.358 121.191C171.574 121.191 171.682 121.299 171.682 121.515C171.682 121.684 171.643 121.992 171.566 122.439C171.489 122.886 171.381 123.602 171.242 124.589C171.104 125.575 170.934 126.907 170.734 128.587C170.549 130.251 170.349 132.392 170.133 135.011C170.087 135.535 170.033 136.159 169.971 136.883C169.91 137.608 169.848 138.378 169.786 139.194C169.725 139.996 169.663 140.82 169.602 141.667C169.555 142.499 169.509 143.293 169.463 144.048C169.417 144.787 169.378 145.465 169.347 146.081C169.317 146.698 169.301 147.191 169.301 147.56C169.301 148.624 169.409 149.463 169.625 150.08C169.856 150.68 170.233 150.981 170.757 150.981C171.05 150.981 171.312 150.85 171.543 150.588C171.774 150.326 171.997 149.972 172.213 149.525C172.429 149.063 172.652 148.531 172.883 147.93C173.114 147.314 173.369 146.651 173.646 145.943C173.723 145.758 173.815 145.619 173.923 145.527C174.031 145.419 174.147 145.365 174.27 145.365ZM186.68 146.081C186.218 147.468 185.787 148.685 185.386 149.733C184.986 150.765 184.585 151.636 184.184 152.344C183.784 153.038 183.352 153.562 182.89 153.916C182.443 154.27 181.943 154.447 181.388 154.447C181.003 154.447 180.679 154.324 180.417 154.078C180.171 153.831 179.963 153.554 179.793 153.246C179.624 152.938 179.493 152.645 179.4 152.367C179.323 152.075 179.27 151.882 179.239 151.79C179.223 151.759 179.208 151.713 179.193 151.651C179.177 151.589 179.154 151.559 179.123 151.559C179.092 151.559 179.062 151.582 179.031 151.628C179.015 151.674 178.992 151.72 178.961 151.767C178.915 151.874 178.792 152.075 178.592 152.367C178.391 152.66 178.137 152.961 177.829 153.269C177.536 153.577 177.197 153.854 176.812 154.101C176.427 154.332 176.011 154.447 175.564 154.447C175.21 154.447 174.863 154.332 174.524 154.101C174.201 153.87 173.916 153.562 173.669 153.176C173.423 152.776 173.23 152.306 173.091 151.767C172.937 151.227 172.86 150.65 172.86 150.033C172.86 148.693 173.076 147.437 173.507 146.266C173.923 145.08 174.609 143.894 175.564 142.707C176.026 142.137 176.512 141.629 177.02 141.182C177.544 140.735 178.052 140.365 178.545 140.073C179.038 139.764 179.508 139.533 179.955 139.379C180.417 139.225 180.81 139.148 181.134 139.148C181.349 139.148 181.565 139.187 181.781 139.264C181.997 139.341 182.189 139.472 182.359 139.657C182.528 139.842 182.659 140.088 182.752 140.396C182.859 140.689 182.913 141.051 182.913 141.482C182.913 141.945 182.836 142.445 182.682 142.985C182.544 143.524 182.328 144.032 182.035 144.51C181.758 144.972 181.411 145.357 180.995 145.665C180.579 145.974 180.109 146.128 179.585 146.128C179.262 146.128 179.1 146.004 179.1 145.758C179.1 145.588 179.139 145.311 179.216 144.926C179.308 144.541 179.354 144.171 179.354 143.817C179.354 143.678 179.347 143.516 179.331 143.331C179.316 143.131 179.277 142.938 179.216 142.753C179.154 142.569 179.069 142.415 178.961 142.291C178.854 142.168 178.707 142.106 178.522 142.106C178.106 142.106 177.744 142.299 177.436 142.684C177.128 143.069 176.866 143.539 176.65 144.094C176.45 144.649 176.296 145.226 176.188 145.827C176.08 146.428 176.026 146.944 176.026 147.376C176.026 147.961 176.073 148.454 176.165 148.855C176.257 149.24 176.381 149.556 176.535 149.802C176.689 150.033 176.866 150.203 177.066 150.311C177.267 150.403 177.475 150.449 177.69 150.449C178.199 150.449 178.653 150.28 179.054 149.941C179.454 149.587 179.801 149.201 180.094 148.785C180.387 148.354 180.625 147.969 180.81 147.63C181.011 147.275 181.172 147.098 181.296 147.098C181.434 147.098 181.527 147.26 181.573 147.584C181.665 148.277 181.765 148.847 181.873 149.294C181.981 149.741 182.089 150.095 182.197 150.357C182.305 150.603 182.413 150.781 182.52 150.888C182.644 150.981 182.767 151.027 182.89 151.027C183.121 151.027 183.352 150.896 183.584 150.634C183.815 150.357 184.046 149.987 184.277 149.525C184.508 149.063 184.747 148.523 184.993 147.907C185.24 147.291 185.502 146.636 185.779 145.943C185.949 145.558 186.149 145.365 186.38 145.365C186.611 145.365 186.727 145.504 186.727 145.781C186.727 145.889 186.711 145.989 186.68 146.081ZM195.185 146.081C194.692 147.499 194.245 148.731 193.845 149.779C193.459 150.827 193.067 151.705 192.666 152.414C192.265 153.107 191.834 153.631 191.372 153.985C190.91 154.324 190.355 154.494 189.708 154.494C189.338 154.494 188.945 154.386 188.529 154.17C188.113 153.97 187.728 153.577 187.374 152.991C187.019 152.406 186.727 151.589 186.495 150.542C186.264 149.479 186.149 148.1 186.149 146.405C186.149 145.958 186.164 145.373 186.195 144.649C186.241 143.909 186.287 143.092 186.334 142.199C186.395 141.29 186.465 140.335 186.542 139.333C186.619 138.316 186.703 137.299 186.796 136.282C186.719 136.298 186.65 136.313 186.588 136.329C186.526 136.329 186.457 136.329 186.38 136.329C185.548 136.421 184.939 136.506 184.554 136.583C184.169 136.645 183.938 136.714 183.861 136.791C183.784 136.853 183.745 136.93 183.745 137.022C183.745 137.099 183.745 137.176 183.745 137.253C183.73 137.315 183.707 137.376 183.676 137.438C183.63 137.484 183.545 137.507 183.422 137.507C183.345 137.507 183.252 137.492 183.144 137.461C183.021 137.415 182.906 137.353 182.798 137.276C182.674 137.184 182.574 137.076 182.497 136.953C182.42 136.814 182.382 136.652 182.382 136.467C182.382 136.298 182.42 136.121 182.497 135.936C182.559 135.751 182.644 135.574 182.752 135.404C182.859 135.219 183.021 134.996 183.237 134.734C183.437 134.472 183.714 134.21 184.069 133.948C184.408 133.671 184.831 133.417 185.34 133.186C185.848 132.955 186.449 132.77 187.143 132.631C187.22 131.984 187.297 131.414 187.374 130.921C187.466 130.412 187.559 129.966 187.651 129.58C187.743 129.18 187.828 128.825 187.905 128.517C187.998 128.194 188.09 127.901 188.183 127.639C188.367 127.038 188.599 126.584 188.876 126.276C189.153 125.952 189.469 125.613 189.823 125.259C190.209 124.874 190.532 124.619 190.794 124.496C191.071 124.357 191.279 124.28 191.418 124.265C191.557 124.265 191.68 124.311 191.788 124.404C191.911 124.481 191.973 124.627 191.973 124.843C191.973 124.966 191.965 125.074 191.95 125.166C191.934 125.243 191.919 125.313 191.903 125.374C191.857 125.544 191.78 125.844 191.672 126.276C191.58 126.707 191.464 127.239 191.326 127.87C191.202 128.487 191.071 129.188 190.933 129.973C190.794 130.744 190.671 131.568 190.563 132.446C191.395 132.508 192.088 132.616 192.643 132.77C193.213 132.908 193.56 132.993 193.683 133.024C193.945 133.116 194.122 133.201 194.214 133.278C194.307 133.355 194.392 133.486 194.469 133.671C194.53 133.794 194.6 133.894 194.677 133.971C194.769 134.048 194.854 134.118 194.931 134.179C195.023 134.241 195.1 134.31 195.162 134.387C195.224 134.464 195.254 134.572 195.254 134.711C195.254 134.834 195.224 134.957 195.162 135.081C195.1 135.189 195.031 135.258 194.954 135.289C194.846 135.35 194.646 135.412 194.353 135.474C194.06 135.52 193.706 135.574 193.29 135.635C192.874 135.682 192.396 135.736 191.857 135.797C191.333 135.843 190.786 135.897 190.216 135.959C190.031 137.869 189.846 139.711 189.662 141.482C189.492 143.254 189.407 144.833 189.407 146.22C189.407 146.929 189.446 147.576 189.523 148.161C189.615 148.747 189.746 149.255 189.916 149.687C190.085 150.103 190.286 150.426 190.517 150.657C190.763 150.888 191.041 151.004 191.349 151.004C191.626 151.004 191.88 150.881 192.111 150.634C192.342 150.372 192.574 150.018 192.805 149.571C193.036 149.124 193.267 148.593 193.498 147.976C193.744 147.36 194.006 146.682 194.284 145.943C194.422 145.558 194.623 145.365 194.885 145.365C195.131 145.365 195.254 145.504 195.254 145.781C195.254 145.827 195.247 145.881 195.231 145.943C195.216 146.004 195.2 146.051 195.185 146.081ZM205.816 145.365C205.908 145.365 205.985 145.396 206.047 145.457C206.124 145.519 206.163 145.611 206.163 145.735C206.163 145.858 206.139 145.974 206.093 146.081C205.862 146.728 205.608 147.337 205.331 147.907C205.069 148.477 204.822 148.986 204.591 149.432C204.314 149.941 204.044 150.418 203.782 150.865C203.459 151.374 203.097 151.859 202.696 152.321C202.311 152.768 201.887 153.169 201.425 153.523C200.963 153.862 200.462 154.132 199.923 154.332C199.383 154.532 198.813 154.632 198.213 154.632C197.766 154.632 197.273 154.555 196.733 154.401C196.21 154.247 195.717 153.962 195.254 153.546C194.808 153.13 194.438 152.56 194.145 151.836C193.837 151.112 193.683 150.18 193.683 149.04C193.683 148.516 193.737 147.984 193.845 147.445C193.937 146.906 194.076 146.39 194.261 145.897C194.43 145.403 194.623 144.941 194.838 144.51C195.07 144.078 195.301 143.701 195.532 143.377C195.932 142.823 196.356 142.307 196.803 141.829C197.25 141.336 197.696 140.912 198.143 140.558C198.605 140.188 199.052 139.903 199.484 139.703C199.915 139.503 200.316 139.402 200.685 139.402C201.271 139.402 201.779 139.626 202.211 140.073C202.657 140.519 202.881 141.159 202.881 141.991C202.881 142.715 202.696 143.47 202.326 144.256C201.956 145.026 201.494 145.781 200.94 146.521C200.385 147.26 199.792 147.946 199.16 148.577C198.528 149.209 197.951 149.733 197.427 150.149C197.704 150.842 198.058 151.351 198.49 151.674C198.921 151.998 199.36 152.159 199.807 152.159C200.501 152.159 201.117 151.936 201.656 151.489C202.211 151.042 202.704 150.496 203.135 149.848C203.582 149.201 203.967 148.523 204.291 147.815C204.63 147.106 204.93 146.482 205.192 145.943C205.284 145.758 205.377 145.619 205.469 145.527C205.562 145.419 205.677 145.365 205.816 145.365ZM196.826 146.474C196.826 147.383 196.895 148.184 197.034 148.878C197.342 148.57 197.65 148.223 197.958 147.838C198.282 147.437 198.567 147.029 198.813 146.613C199.075 146.197 199.283 145.773 199.437 145.342C199.607 144.91 199.692 144.494 199.692 144.094C199.692 143.478 199.561 143 199.299 142.661C199.037 142.322 198.775 142.153 198.513 142.153C198.359 142.153 198.182 142.253 197.981 142.453C197.797 142.638 197.612 142.915 197.427 143.285C197.257 143.655 197.111 144.109 196.988 144.649C196.88 145.172 196.826 145.781 196.826 146.474Z" fill="#05533F"/>
</svg>
