<svg width="62" height="62" viewBox="0 0 62 62" fill="none" xmlns="http://www.w3.org/2000/svg">
<circle cx="31" cy="31" r="23" fill="#95B9B9"/>
<path fill-rule="evenodd" clip-rule="evenodd" d="M31 53C43.1503 53 53 43.1503 53 31C53 18.8497 43.1503 9 31 9C18.8497 9 9 18.8497 9 31C9 43.1503 18.8497 53 31 53ZM31 54C43.7025 54 54 43.7025 54 31C54 18.2975 43.7025 8 31 8C18.2975 8 8 18.2975 8 31C8 43.7025 18.2975 54 31 54Z" fill="#95B9B9"/>
<path fill-rule="evenodd" clip-rule="evenodd" d="M25.8042 30.1427L26.5113 29.4355L30.9999 33.9241L35.4884 29.4355L36.1955 30.1427L30.9999 35.3383L25.8042 30.1427Z" fill="white"/>
</svg>
